<?xml version="1.0" encoding="utf-8"?>
<!-- Generator: Adobe Illustrator 15.0.0, SVG Export Plug-In . SVG Version: 6.00 Build 0)  -->
<!DOCTYPE svg PUBLIC "-//W3C//DTD SVG 1.1//EN" "http://www.w3.org/Graphics/SVG/1.1/DTD/svg11.dtd">
<svg version="1.1" id="Layer_1" xmlns="http://www.w3.org/2000/svg" xmlns:xlink="http://www.w3.org/1999/xlink" x="0px" y="0px"
	 width="841.788px" height="296.26px" viewBox="0.101 447.127 841.788 296.26"
	 enable-background="new 0.101 447.127 841.788 296.26" xml:space="preserve">
<title>EPAM_LOGO_Full_Color_RGB</title>
<g>
	<path fill="#FFFFFF" d="M158.825,579.448v54.389c0,13.791,6.896,20.686,20.686,20.686h6.021c13.791,0,20.687-6.896,20.687-20.686
		v-26.739h31.887v25.428c0,34.913-17.658,52.605-52.604,52.605h-6.794c-34.914,0-52.605-17.658-52.605-48.502V503.837
		c0-39.018,17.658-56.676,52.605-56.676h6.895c34.914,0,52.605,17.691,52.605,52.605v79.682H158.825L158.825,579.448z
		 M158.825,547.9h46.786v-49.444c0-13.789-6.896-20.686-20.687-20.686h-5.18c-13.79,0-20.687,6.896-20.687,20.686L158.825,547.9z"/>
	<path fill="#FFFFFF" d="M259.429,449.752h32.76v15.102c10.324-11.214,24.851-17.624,40.094-17.691
		c28.019,0,41.81,18.532,41.81,46.113v145.708c0,27.581-13.791,46.114-41.81,46.114c-15.08,0.003-29.527-6.059-40.094-16.818v75.107
		h-32.76V449.752z M292.189,642.011c8.295,7.56,19.052,11.851,30.271,12.075c12.074,0,18.971-5.617,18.971-18.972V497.211
		c0-13.454-6.896-18.972-18.971-18.972c-11.221,0.226-21.978,4.517-30.271,12.075V642.011z"/>
	<path fill="#FFFFFF" d="M393.969,601.481c0-28.893,9.484-40.362,34.477-49.142l43.961-15.103v-38.782
		c0-13.79-6.896-21.122-20.686-21.122h-5.349c-13.791,0-20.686,7.332-20.686,21.122v32.964h-31.719v-31.686
		c0-34.913,17.657-52.605,52.604-52.605h6.189c34.913,0,52.604,17.692,52.604,52.605v182.774h-32.761v-14.665
		c-10.438,10.999-24.93,17.235-40.094,17.255c-26.303,0-38.378-15.104-38.378-40.968L393.969,601.481z M472.44,643.288v-76.756
		l-29.732,11.269c-12.075,4.743-15.942,10.764-15.942,24.149v35.418c0,11.2,5.617,16.817,15.942,16.817
		C453.031,654.187,461.643,650.62,472.44,643.288L472.44,643.288z"/>
	<path fill="#FFFFFF" d="M637.69,682.541h-32.761V495.025c0-11.638-5.617-16.817-15.506-16.817c-9.048,0-18.532,3.363-30.271,11.639
		v192.695h-32.66V449.752h32.762v15.102c9.484-9.048,21.998-17.691,40.094-17.691c16.817,0,28.018,6.896,34.039,18.971
		c11.638-9.922,25.428-18.971,44.397-18.971c25.429,0,38.378,15.507,38.378,40.969v194.41h-32.93V495.025
		c0-11.638-5.617-16.817-15.506-16.817c-9.048,0-18.532,3.363-30.271,11.639L637.69,682.541z"/>
	<path fill="#39C2D7" d="M84.189,471.178v42.816l-55.128,52.538l55.128,51.598v43.726l-84.088-79.11v-31.481L84.189,471.178z"/>
	<path fill="#39C2D7" d="M841.889,551.263v31.481l-84.088,79.11V618.13l55.129-51.598l-55.129-52.538v-42.816L841.889,551.263z"/>
</g>
</svg>
